<svg xmlns="http://www.w3.org/2000/svg" xmlns:xlink="http://www.w3.org/1999/xlink" width="431.407" height="500.752" viewBox="0 0 431.407 500.752">
  <defs>
    <filter id="Rectangle_WS" x="5" y="5.951" width="145.774" height="146.084" filterUnits="userSpaceOnUse">
      <feOffset dx="2" dy="2" input="SourceAlpha"/>
      <feGaussianBlur stdDeviation="10" result="blur"/>
      <feFlood flood-color="#8894aa" flood-opacity="0.4"/>
      <feComposite operator="in" in2="blur"/>
      <feComposite in="SourceGraphic"/>
    </filter>
    <linearGradient id="linear-gradient" x1="1" y1="1" x2="-0.324" y2="-0.328" gradientUnits="objectBoundingBox">
      <stop offset="0" stop-color="#f8f9fa"/>
      <stop offset="1" stop-color="#d5dae1"/>
    </linearGradient>
    <filter id="Rectangle_WS-2" x="0" y="0.951" width="145.774" height="146.084" filterUnits="userSpaceOnUse">
      <feOffset dx="-3" dy="-3" input="SourceAlpha"/>
      <feGaussianBlur stdDeviation="10" result="blur-2"/>
      <feFlood flood-color="#fff"/>
      <feComposite operator="in" in2="blur-2"/>
      <feComposite in="SourceGraphic"/>
    </filter>
    <filter id="Rectangle_WS-3" x="272.856" y="0.951" width="145.774" height="146.084" filterUnits="userSpaceOnUse">
      <feOffset dx="-3" dy="-3" input="SourceAlpha"/>
      <feGaussianBlur stdDeviation="10" result="blur-3"/>
      <feFlood flood-color="#fff"/>
      <feComposite operator="in" in2="blur-3"/>
      <feComposite in="SourceGraphic"/>
    </filter>
    <filter id="Rectangle_WS-4" x="136.903" y="0" width="145.774" height="146.084" filterUnits="userSpaceOnUse">
      <feOffset dx="-3" dy="-3" input="SourceAlpha"/>
      <feGaussianBlur stdDeviation="10" result="blur-4"/>
      <feFlood flood-color="#fff"/>
      <feComposite operator="in" in2="blur-4"/>
      <feComposite in="SourceGraphic"/>
    </filter>
    <filter id="Rectangle_WS-5" x="127.511" y="156.92" width="180" height="180" filterUnits="userSpaceOnUse">
      <feOffset dx="2" dy="2" input="SourceAlpha"/>
      <feGaussianBlur stdDeviation="10" result="blur-5"/>
      <feFlood flood-color="#8894aa" flood-opacity="0.4"/>
      <feComposite operator="in" in2="blur-5"/>
      <feComposite in="SourceGraphic"/>
    </filter>
    <filter id="Rectangle_WS-6" x="122.511" y="151.92" width="180" height="180" filterUnits="userSpaceOnUse">
      <feOffset dx="-3" dy="-3" input="SourceAlpha"/>
      <feGaussianBlur stdDeviation="10" result="blur-6"/>
      <feFlood flood-color="#fff"/>
      <feComposite operator="in" in2="blur-6"/>
      <feComposite in="SourceGraphic"/>
    </filter>
  </defs>
  <g id="Group_122" data-name="Group 122" transform="translate(-193.275 -4180)">
    <rect id="Rectangle_109" data-name="Rectangle 109" width="50.3" height="50.3" rx="9.348" transform="translate(207.781 4566.77)" fill="#e6e9ed"/>
    <path id="Path_82" data-name="Path 82" d="M264.842,704.116a12.841,12.841,0,1,0,12.841,12.841,12.841,12.841,0,0,0-12.841-12.841Z" transform="translate(-31.912 3876.035)" fill="#ffbebe"/>
    <g id="Group" transform="translate(2 -0.085)">
      <path id="Path_238" data-name="Path 238" d="M1.152,0V-11.392H5.1a5.334,5.334,0,0,1,5.728,5.7A5.326,5.326,0,0,1,5.1,0ZM2.96-1.616H5.1c2.384,0,3.84-1.6,3.84-4.128,0-2.512-1.456-4.048-3.84-4.048H2.96ZM20.336-4.272a3.83,3.83,0,0,0-4-4.1,3.921,3.921,0,0,0-4.048,4.256A3.93,3.93,0,0,0,16.352.16a3.8,3.8,0,0,0,3.9-2.784H18.48a2.1,2.1,0,0,1-2.1,1.344,2.2,2.2,0,0,1-2.32-2.336h6.272Zm-4-2.7A2.118,2.118,0,0,1,18.56-4.832H14.08A2.17,2.17,0,0,1,16.336-6.976ZM24.816,0H26.24V-1.552h-.928c-.768,0-.96-.352-.96-1.008V-6.64h1.9V-8.192h-1.9v-2.192H22.608V-8.96c0,.512-.16.768-.672.768h-.7V-6.64h1.376v4.416A2,2,0,0,0,24.816,0Zm10.7-4.272a3.83,3.83,0,0,0-4-4.1,3.921,3.921,0,0,0-4.048,4.256A3.93,3.93,0,0,0,31.536.16a3.8,3.8,0,0,0,3.9-2.784H33.664a2.1,2.1,0,0,1-2.1,1.344,2.2,2.2,0,0,1-2.32-2.336H35.52Zm-4-2.7a2.118,2.118,0,0,1,2.224,2.144h-4.48A2.17,2.17,0,0,1,31.52-6.976ZM43.008-5.248H44.9a3.783,3.783,0,0,0-3.92-3.12A3.937,3.937,0,0,0,36.9-4.112,3.938,3.938,0,0,0,40.96.16,3.843,3.843,0,0,0,44.9-3.04H43.04a2.12,2.12,0,0,1-2.112,1.664c-1.28,0-2.24-.9-2.24-2.736,0-1.744.928-2.736,2.288-2.736A2.055,2.055,0,0,1,43.008-5.248ZM48.992,0h1.424V-1.552h-.928c-.768,0-.96-.352-.96-1.008V-6.64h1.9V-8.192h-1.9v-2.192H46.784V-8.96c0,.512-.16.768-.672.768h-.7V-6.64h1.376v4.416A2,2,0,0,0,48.992,0Zm2.976-9.728H53.9v-1.824H51.968ZM52.064,0h1.744V-8.192H52.064Zm3.552-4.1A4.036,4.036,0,0,0,59.824.16,4.04,4.04,0,0,0,64.048-4.1a4.053,4.053,0,0,0-4.224-4.272A4.049,4.049,0,0,0,55.616-4.1Zm1.792-.016c0-1.7.96-2.768,2.416-2.768,1.472,0,2.432,1.072,2.432,2.768,0,1.68-.96,2.768-2.432,2.768C58.368-1.344,57.408-2.432,57.408-4.112Zm12.736-4.24a2.821,2.821,0,0,0-2.592,1.264l-.128-1.1H65.84V0h1.744V-4.4c0-1.456.736-2.416,2.1-2.416,1.2,0,1.984.752,1.984,2.288V0h1.76V-4.9A3.125,3.125,0,0,0,70.144-8.352Z" transform="translate(192.816 4654.637)" fill="#8894aa"/>
      <path id="Path_239" data-name="Path 239" d="M8.752,0H10.7L6.352-11.392H4.528L.16,0H2l.976-2.608h4.8ZM3.536-4.064,5.392-9.008l1.84,4.944Zm10.208-7.824H12V0h1.744Zm9.9,7.616a3.83,3.83,0,0,0-4-4.1A3.921,3.921,0,0,0,15.6-4.112,3.93,3.93,0,0,0,19.664.16a3.8,3.8,0,0,0,3.9-2.784H21.792A2.1,2.1,0,0,1,19.7-1.28a2.2,2.2,0,0,1-2.32-2.336h6.272Zm-4-2.7a2.118,2.118,0,0,1,2.224,2.144h-4.48A2.17,2.17,0,0,1,19.648-6.976ZM29.2-8.192a2.132,2.132,0,0,0-1.936,1.056l-.208-1.056h-1.6V0h1.76V-4.368c0-1.392.528-2.256,1.888-2.256h1.168V-8.192ZM34.656,0H36.08V-1.552h-.928c-.768,0-.96-.352-.96-1.008V-6.64h1.9V-8.192h-1.9v-2.192H32.448V-8.96c0,.512-.16.768-.672.768h-.7V-6.64h1.376v4.416A2,2,0,0,0,34.656,0Zm2.56-2.48C37.248-.88,38.7.16,40.864.16c1.9,0,3.472-.88,3.472-2.576,0-1.232-.7-1.984-2.224-2.256L40.5-4.96c-.912-.16-1.328-.432-1.328-1.024,0-.672.608-1.072,1.568-1.072,1.008,0,1.728.464,1.744,1.3h1.728c-.016-1.632-1.472-2.592-3.472-2.592-1.856,0-3.312.96-3.312,2.432,0,1.168.624,2,2.224,2.272L41.3-3.36c.928.144,1.248.48,1.248,1.1,0,.72-.64,1.12-1.712,1.12s-1.856-.5-1.872-1.344Z" transform="translate(207.52 4677.637)" fill="#8894aa"/>
    </g>
    <g id="Group-2" data-name="Group" transform="translate(2 -0.245)">
      <path id="Path_236" data-name="Path 236" d="M8.752,0H10.7L6.352-11.392H4.528L.16,0H2l.976-2.608h4.8ZM3.536-4.064,5.392-9.008l1.84,4.944ZM17.968-2l-3.76-9.392H12.016V0h1.776V-5.2a30.283,30.283,0,0,0-.112-3.392L17.088,0h1.7l3.44-8.4a25.973,25.973,0,0,0-.16,3.2V0h1.792V-11.392H21.728Zm10,.336v-9.728H26.16V0h7.28V-1.664Z" transform="translate(387.218 4654.637)" fill="#8894aa"/>
      <path id="Path_237" data-name="Path 237" d="M1.152,0H2.944V-4h2.64L7.7,0H9.728L7.472-4.24a3.371,3.371,0,0,0,2.5-3.5c0-2.24-1.568-3.648-3.936-3.648H1.152ZM2.944-5.568V-9.792H5.856A1.944,1.944,0,0,1,8.08-7.7,1.96,1.96,0,0,1,5.856-5.568Zm16.464,1.3a3.83,3.83,0,0,0-4-4.1A3.921,3.921,0,0,0,11.36-4.112,3.93,3.93,0,0,0,15.424.16a3.8,3.8,0,0,0,3.9-2.784H17.552a2.1,2.1,0,0,1-2.1,1.344,2.2,2.2,0,0,1-2.32-2.336h6.272Zm-4-2.7a2.118,2.118,0,0,1,2.224,2.144h-4.48A2.17,2.17,0,0,1,15.408-6.976ZM27.344-8.192l-.176,1.136a2.967,2.967,0,0,0-2.64-1.3c-2.144,0-3.7,1.536-3.7,4.1,0,2.528,1.552,4.08,3.68,4.08A2.955,2.955,0,0,0,27.184-1.5v1.28a2.071,2.071,0,0,1-2.3,2.144,1.979,1.979,0,0,1-2.1-1.408H21.04c.272,1.712,1.76,2.848,3.824,2.848A3.7,3.7,0,0,0,28.9-.512v-7.68ZM24.88-1.712A2.245,2.245,0,0,1,22.64-4.24a2.286,2.286,0,0,1,2.24-2.576A2.309,2.309,0,0,1,27.152-4.24,2.276,2.276,0,0,1,24.88-1.712Zm11.6-6.5v4.5c0,1.408-.688,2.32-1.968,2.336-1.168.016-1.936-.688-1.936-2.176V-8.208H30.9v4.9c0,2.1,1.2,3.472,3.248,3.472a2.617,2.617,0,0,0,2.32-1.216L36.592,0H38.16V-8.208Zm5.5-3.68H40.24V0h1.744Zm9.5,10.576c-.368,0-.544-.1-.544-.544V-5.168c0-2.224-1.568-3.184-3.488-3.184-2.016,0-3.472,1.024-3.52,2.8h1.616c.048-.848.752-1.392,1.84-1.392a1.609,1.609,0,0,1,1.792,1.76v.416H46.8c-2.24,0-3.12,1.024-3.12,2.416C43.68-.784,44.832.16,46.64.16a3.2,3.2,0,0,0,2.752-1.2A1.25,1.25,0,0,0,50.8,0h.992V-1.312Zm-2.3-1.92a1.921,1.921,0,0,1-2.144,2c-.9,0-1.552-.368-1.552-1.2,0-.608.368-1.136,1.552-1.136h2.144ZM55.776,0H57.2V-1.552h-.928c-.768,0-.96-.352-.96-1.008V-6.64h1.9V-8.192h-1.9v-2.192H53.568V-8.96c0,.512-.16.768-.672.768h-.7V-6.64h1.376v4.416A2,2,0,0,0,55.776,0Zm2.976-9.728h1.936v-1.824H58.752ZM58.848,0h1.744V-8.192H58.848ZM62.4-4.1A4.036,4.036,0,0,0,66.608.16,4.04,4.04,0,0,0,70.832-4.1a4.053,4.053,0,0,0-4.224-4.272A4.049,4.049,0,0,0,62.4-4.1Zm1.792-.016c0-1.7.96-2.768,2.416-2.768,1.472,0,2.432,1.072,2.432,2.768,0,1.68-.96,2.768-2.432,2.768C65.152-1.344,64.192-2.432,64.192-4.112Zm12.736-4.24a2.821,2.821,0,0,0-2.592,1.264l-.128-1.1H72.624V0h1.744V-4.4c0-1.456.736-2.416,2.1-2.416,1.2,0,1.984.752,1.984,2.288V0h1.76V-4.9A3.125,3.125,0,0,0,76.928-8.352Z" transform="translate(363.602 4677.637)" fill="#8894aa"/>
    </g>
    <g id="Group-3" data-name="Group" transform="translate(8 -0.245)">
      <path id="Path_235" data-name="Path 235" d="M8.688-9.792v-1.6H1.152V0H2.96V-4.816H7.936V-6.384H2.96V-9.792Zm3.408-1.6H10.288V0H12.1Zm4.016,0H14.3v7.024A4.231,4.231,0,0,0,18.88.16a4.256,4.256,0,0,0,4.608-4.528v-7.024H21.664v7.12A2.564,2.564,0,0,1,18.88-1.44a2.56,2.56,0,0,1-2.768-2.832Z" transform="translate(562.466 4654.637)" fill="#8894aa"/>
      <path id="Path_234" data-name="Path 234" d="M2.96-11.392H1.152V0H2.96Zm6.5,3.04A2.821,2.821,0,0,0,6.864-7.088l-.128-1.1H5.152V0H6.9V-4.4c0-1.456.736-2.416,2.1-2.416,1.2,0,1.984.752,1.984,2.288V0h1.76V-4.9A3.125,3.125,0,0,0,9.456-8.352ZM17.408,0h1.424V-1.552H17.9c-.768,0-.96-.352-.96-1.008V-6.64h1.9V-8.192h-1.9v-2.192H15.2V-8.96c0,.512-.16.768-.672.768h-.7V-6.64H15.2v4.416A2,2,0,0,0,17.408,0Zm10.7-4.272a3.83,3.83,0,0,0-4-4.1,3.921,3.921,0,0,0-4.048,4.256A3.93,3.93,0,0,0,24.128.16a3.8,3.8,0,0,0,3.9-2.784H26.256a2.1,2.1,0,0,1-2.1,1.344,2.2,2.2,0,0,1-2.32-2.336h6.272Zm-4-2.7a2.118,2.118,0,0,1,2.224,2.144h-4.48A2.17,2.17,0,0,1,24.112-6.976ZM36.048-8.192l-.176,1.136a2.967,2.967,0,0,0-2.64-1.3c-2.144,0-3.7,1.536-3.7,4.1,0,2.528,1.552,4.08,3.68,4.08A2.955,2.955,0,0,0,35.888-1.5v1.28a2.071,2.071,0,0,1-2.3,2.144,1.979,1.979,0,0,1-2.1-1.408H29.744c.272,1.712,1.76,2.848,3.824,2.848A3.7,3.7,0,0,0,37.6-.512v-7.68Zm-2.464,6.48a2.245,2.245,0,0,1-2.24-2.528,2.286,2.286,0,0,1,2.24-2.576A2.309,2.309,0,0,1,35.856-4.24,2.276,2.276,0,0,1,33.584-1.712Zm9.856-6.48A2.132,2.132,0,0,0,41.5-7.136L41.3-8.192H39.7V0h1.76V-4.368c0-1.392.528-2.256,1.888-2.256h1.168V-8.192Zm9.632,6.88c-.368,0-.544-.1-.544-.544V-5.168c0-2.224-1.568-3.184-3.488-3.184-2.016,0-3.472,1.024-3.52,2.8h1.616c.048-.848.752-1.392,1.84-1.392a1.609,1.609,0,0,1,1.792,1.76v.416H48.384c-2.24,0-3.12,1.024-3.12,2.416,0,1.568,1.152,2.512,2.96,2.512a3.2,3.2,0,0,0,2.752-1.2A1.25,1.25,0,0,0,52.384,0h.992V-1.312Zm-2.3-1.92a1.921,1.921,0,0,1-2.144,2c-.9,0-1.552-.368-1.552-1.2,0-.608.368-1.136,1.552-1.136h2.144ZM57.36,0h1.424V-1.552h-.928c-.768,0-.96-.352-.96-1.008V-6.64h1.9V-8.192H56.9v-2.192H55.152V-8.96c0,.512-.16.768-.672.768h-.7V-6.64h1.376v4.416A2,2,0,0,0,57.36,0Zm2.976-9.728h1.936v-1.824H60.336ZM60.432,0h1.744V-8.192H60.432Zm3.552-4.1A4.036,4.036,0,0,0,68.192.16,4.04,4.04,0,0,0,72.416-4.1a4.053,4.053,0,0,0-4.224-4.272A4.049,4.049,0,0,0,63.984-4.1Zm1.792-.016c0-1.7.96-2.768,2.416-2.768,1.472,0,2.432,1.072,2.432,2.768,0,1.68-.96,2.768-2.432,2.768C66.736-1.344,65.776-2.432,65.776-4.112Zm12.736-4.24A2.821,2.821,0,0,0,75.92-7.088l-.128-1.1H74.208V0h1.744V-4.4c0-1.456.736-2.416,2.1-2.416,1.2,0,1.984.752,1.984,2.288V0h1.76V-4.9A3.125,3.125,0,0,0,78.512-8.352Z" transform="translate(534.89 4677.637)" fill="#8894aa"/>
    </g>
    <path id="Path_89" data-name="Path 89" d="M433.81,741.708h26.812a9.411,9.411,0,0,0,9.411-9.411V692.624a.855.855,0,0,0-.25-.6l-3.553-3.552-4.5-4.5a.855.855,0,0,0-.6-.25H433.81a9.411,9.411,0,0,0-9.411,9.411V732.3A9.411,9.411,0,0,0,433.81,741.708Z" transform="translate(-40.408 3877.04)" fill="#e6e9ed"/>
    <path id="Path_90" data-name="Path 90" d="M446.783,710.187c2.923,0,5.844.015,8.766-.007,1.318-.01,2.5.31,2.551,1.812.061,1.66-1.161,2.017-2.583,2.014q-8.765-.021-17.53,0c-1.318,0-2.5-.31-2.552-1.812-.06-1.656,1.161-2.024,2.584-2.014C440.939,710.2,443.861,710.186,446.783,710.187Z" transform="translate(-40.952 3875.736)" fill="#f03e40"/>
    <path id="Path_91" data-name="Path 91" d="M463.139,683.989l8.439,8.294a.952.952,0,0,1-.67,1.629h-8.247c-.794,0-1.138-.438-1.138-1.2v-8.054a.95.95,0,0,1,1.616-.669Z" transform="translate(-42.238 3877.04)" fill="#8894aa"/>
    <path id="Path_92" data-name="Path 92" d="M442.052,704.018h-4.511c-1.266,0-2.171-.4-2.176-1.88,0-1.418.762-1.971,2.093-1.966,3.007.01,6.014,0,9.021,0,1.269,0,2.167.405,2.175,1.881.009,1.606-.96,1.995-2.329,1.972C444.9,704,443.477,704.022,442.052,704.018Z" transform="translate(-40.949 3876.229)" fill="#ffbebe"/>
    <path id="Path_93" data-name="Path 93" d="M442,723.988c-1.5,0-2.995.016-4.491-.007-1.174-.018-2.035-.576-2.085-1.789-.055-1.349.827-1.985,2.112-2,2.994-.025,5.989-.019,8.983,0a1.835,1.835,0,0,1,2.084,1.789c.055,1.35-.826,1.972-2.111,2C445,724.012,443.5,723.989,442,723.988Z" transform="translate(-40.952 3875.243)" fill="#f03e40"/>
    <circle id="Ellipse_13" data-name="Ellipse 13" cx="13.294" cy="13.294" r="13.294" transform="translate(407.813 4598.785)" fill="#ffbebe"/>
    <rect id="Rectangle_110" data-name="Rectangle 110" width="4.016" height="10.731" rx="0.881" transform="translate(217.647 4562.432)" fill="#8894aa"/>
    <rect id="Rectangle_111" data-name="Rectangle 111" width="4.016" height="10.731" rx="0.881" transform="translate(244.194 4562.432)" fill="#8894aa"/>
    <circle id="Ellipse_14" data-name="Ellipse 14" cx="1.489" cy="1.489" r="1.489" transform="translate(231.442 4597.904)" fill="#f03e40"/>
    <rect id="Rectangle_112" data-name="Rectangle 112" width="57.136" height="47.538" rx="7" transform="translate(551.374 4567.321)" fill="#e6e9ed"/>
    <path id="Path_94" data-name="Path 94" d="M622.368,699.962a1.6,1.6,0,0,1-1.932-1.8c-.027-1.405.59-2.022,2-1.992,1.317.028,1.817.677,1.811,1.937C624.236,699.4,623.665,700.024,622.368,699.962Z" transform="translate(-50.07 3876.426)" fill="#8894aa"/>
    <path id="Path_95" data-name="Path 95" d="M616.336,696.19c1.274-.061,1.886.518,1.908,1.823.025,1.421-.625,2-2.017,1.966-1.332-.03-1.8-.709-1.788-1.956C614.449,696.727,615.051,696.127,616.336,696.19Z" transform="translate(-49.774 3876.425)" fill="#8894aa"/>
    <path id="Path_96" data-name="Path 96" d="M608.454,698.094c-.063-1.267.5-1.9,1.811-1.921,1.413-.026,2.011.607,1.979,2.006-.029,1.324-.691,1.806-1.945,1.8C609,699.97,608.393,699.383,608.454,698.094Z" transform="translate(-49.479 3876.426)" fill="#8894aa"/>
    <rect id="Rectangle_113" data-name="Rectangle 113" width="2.553" height="10.731" rx="0.881" transform="translate(231.654 4585.189)" fill="#f03e40"/>
    <g id="Group_52" data-name="Group 52" transform="translate(570.658 4582.197)">
      <path id="Path_97" data-name="Path 97" d="M633.625,721.875h-7.368a5.53,5.53,0,0,0-5.514,5.514v2.656a.781.781,0,0,0,.777.778h16.818a.781.781,0,0,0,.777-.778v-2.656a5.477,5.477,0,0,0-5.49-5.514Zm3.935,7.369H622.322v-1.88a3.926,3.926,0,0,1,3.935-3.935h7.368a3.942,3.942,0,0,1,3.935,3.935Z" transform="translate(-620.743 -707.037)" fill="#ffbebe"/>
      <path id="Path_98" data-name="Path 98" d="M625.541,713.067a4.637,4.637,0,1,0,4.637-4.637A4.637,4.637,0,0,0,625.541,713.067Zm4.637-3.058a3.058,3.058,0,1,1-3.057,3.058,3.058,3.058,0,0,1,3.057-3.058Z" transform="translate(-620.979 -706.375)" fill="#ffbebe"/>
      <path id="Path_99" data-name="Path 99" d="M623.181,710.854a.781.781,0,0,0,.777-.777v-2.256h2.23a.777.777,0,1,0,0-1.553h-3.007a.781.781,0,0,0-.777.777v3.008a.756.756,0,0,0,.777.8Z" transform="translate(-620.825 -706.268)" fill="#f03e40"/>
      <path id="Path_100" data-name="Path 100" d="M623.181,715.548a.781.781,0,0,0-.777.777v3.008a.781.781,0,0,0,.777.777h3.007a.777.777,0,0,0,0-1.554h-2.23v-2.23a.75.75,0,0,0-.777-.778Z" transform="translate(-620.825 -706.725)" fill="#f03e40"/>
      <path id="Path_101" data-name="Path 101" d="M637.419,715.521a.781.781,0,0,0-.777.778v2.23h-2.23a.777.777,0,1,0,0,1.553h3.007a.781.781,0,0,0,.777-.777V716.3a.749.749,0,0,0-.777-.779Z" transform="translate(-621.378 -706.724)" fill="#f03e40"/>
      <path id="Path_102" data-name="Path 102" d="M634.385,707.821h2.23v2.231a.777.777,0,1,0,1.554,0v-3.008a.781.781,0,0,0-.777-.777h-3.008a.777.777,0,0,0,0,1.553Z" transform="translate(-621.377 -706.268)" fill="#f03e40"/>
    </g>
    <path id="Path_103" data-name="Path 103" d="M262.4,643.642s4.337-22.559,35-35.567,78.516-21.268,78.516-21.268" transform="translate(-32.425 3881.816)" fill="none" stroke="#9e9c9e" stroke-linecap="round" stroke-miterlimit="10" stroke-width="2" stroke-dasharray="1 10"/>
    <path id="Path_104" data-name="Path 104" d="M629.3,643.642s-4.338-22.559-35-35.567-78.517-21.268-78.517-21.268" transform="translate(-44.912 3881.816)" fill="none" stroke="#9e9c9e" stroke-linecap="round" stroke-miterlimit="10" stroke-width="2" stroke-dasharray="1 10"/>
    <path id="Path_105" data-name="Path 105" d="M585.43,438.576s-4.338,22.559-35,35.568-78.517,21.268-78.517,21.268" transform="translate(-42.75 3889.121)" fill="none" stroke="#9e9c9e" stroke-linecap="round" stroke-miterlimit="10" stroke-width="2" stroke-dasharray="1 10"/>
    <path id="Path_106" data-name="Path 106" d="M307.233,438.576s4.337,22.559,35,35.568,78.516,21.268,78.516,21.268" transform="translate(-34.634 3889.121)" fill="none" stroke="#9e9c9e" stroke-linecap="round" stroke-miterlimit="10" stroke-width="2" stroke-dasharray="1 10"/>
    <line id="Line_2" data-name="Line 2" x2="2.852" y2="205.039" transform="translate(405.547 4327.698)" fill="none" stroke="#9e9c9e" stroke-linecap="round" stroke-miterlimit="10" stroke-width="2" stroke-dasharray="1 10"/>
    <path id="Path_107" data-name="Path 107" d="M298.035,438.119l8.827-8.827,8.661,8.661" transform="translate(-34.181 3889.579)" fill="none" stroke="#ced0d8" stroke-miterlimit="10" stroke-width="4"/>
    <path id="Path_108" data-name="Path 108" d="M438.376,438.119l8.827-8.827,8.661,8.661" transform="translate(-41.097 3889.579)" fill="none" stroke="#ced0d8" stroke-miterlimit="10" stroke-width="4"/>
    <path id="Path_109" data-name="Path 109" d="M582.116,438.119l8.827-8.827,8.661,8.661" transform="translate(-48.181 3889.579)" fill="none" stroke="#ced0d8" stroke-miterlimit="10" stroke-width="4"/>
    <path id="Path_110" data-name="Path 110" d="M643.474,653.148l-8.828,8.828-8.661-8.661" transform="translate(-50.343 3878.546)" fill="none" stroke="#ced0d8" stroke-miterlimit="10" stroke-width="4"/>
    <path id="Path_111" data-name="Path 111" d="M457.864,653.148l-8.827,8.828-8.661-8.661" transform="translate(-41.196 3878.546)" fill="none" stroke="#ced0d8" stroke-miterlimit="10" stroke-width="4"/>
    <path id="Path_112" data-name="Path 112" d="M270.7,653.148l-8.827,8.828-8.661-8.661" transform="translate(-31.971 3878.546)" fill="none" stroke="#ced0d8" stroke-miterlimit="10" stroke-width="4"/>
    <g id="Group_53" data-name="Group 53" transform="translate(226.275 4213.951)">
      <g transform="matrix(1, 0, 0, 1, -33, -33.95)" filter="url(#Rectangle_WS)">
        <rect id="Rectangle_WS-7" data-name="Rectangle WS" width="85.774" height="86.084" rx="22" transform="translate(33 33.95)" fill="#fff"/>
      </g>
      <g transform="matrix(1, 0, 0, 1, -33, -33.95)" filter="url(#Rectangle_WS-2)">
        <rect id="Rectangle_WS-8" data-name="Rectangle WS" width="85.774" height="86.084" rx="22" transform="translate(33 33.95)" fill="url(#linear-gradient)"/>
      </g>
      <g id="Group_54" data-name="Group 54" transform="translate(23.768 21.866)" opacity="0.701">
        <g id="Group_12" data-name="Group 12">
          <path id="Path_37" data-name="Path 37" d="M320.016,360.516c.737.422.588,1.158.6,1.8.031,2.636.106,5.276.023,7.91a17.814,17.814,0,0,1-10.083,16.089c-10.485,5.48-22.725.515-26.73-10.634a17.437,17.437,0,0,1-.824-8.115,3.245,3.245,0,0,0,1.438-.293,18.087,18.087,0,0,0,9.049-8.772c1.006-1.931,1.013-1.931,2.926-.949.247.126.463.311.7.453C304.369,362.3,311.969,363.448,320.016,360.516Z" transform="translate(-282.846 -345.314)" fill="#f03e40" opacity="0.5"/>
          <path id="Path_38" data-name="Path 38" d="M320.017,359.915c-8.047,2.932-15.647,1.78-22.9-2.508-.24-.142-.455-.326-.7-.453-1.913-.982-1.92-.982-2.926.949a18.087,18.087,0,0,1-9.049,8.772,3.245,3.245,0,0,1-1.438.293c-1.035-9.532,3.641-17.138,10.922-20.5a18.785,18.785,0,0,1,25.948,11.945,7.8,7.8,0,0,1,.143,1.5Z" transform="translate(-282.847 -344.713)" fill="#f03e40"/>
        </g>
      </g>
    </g>
    <g id="Group_54-2" data-name="Group 54" transform="translate(499.131 4213.951)">
      <g transform="matrix(1, 0, 0, 1, -305.86, -33.95)" filter="url(#Rectangle_WS-3)">
        <rect id="Rectangle_WS-9" data-name="Rectangle WS" width="85.774" height="86.084" rx="22" transform="translate(305.86 33.95)" fill="url(#linear-gradient)"/>
      </g>
      <g id="Group_55" data-name="Group 55" transform="translate(24.719 20.916)" opacity="0.701">
        <g id="Group_12-2" data-name="Group 12">
          <path id="Path_37-2" data-name="Path 37" d="M320.016,360.516c.737.422.588,1.158.6,1.8.031,2.636.106,5.276.023,7.91a17.814,17.814,0,0,1-10.083,16.089c-10.485,5.48-22.725.515-26.73-10.634a17.437,17.437,0,0,1-.824-8.115,3.245,3.245,0,0,0,1.438-.293,18.087,18.087,0,0,0,9.049-8.772c1.006-1.931,1.013-1.931,2.926-.949.247.126.463.311.7.453C304.369,362.3,311.969,363.448,320.016,360.516Z" transform="translate(-282.846 -345.314)" fill="#f03e40" opacity="0.5"/>
          <path id="Path_38-2" data-name="Path 38" d="M320.017,359.915c-8.047,2.932-15.647,1.78-22.9-2.508-.24-.142-.455-.326-.7-.453-1.913-.982-1.92-.982-2.926.949a18.087,18.087,0,0,1-9.049,8.772,3.245,3.245,0,0,1-1.438.293c-1.035-9.532,3.641-17.138,10.922-20.5a18.785,18.785,0,0,1,25.948,11.945,7.8,7.8,0,0,1,.143,1.5Z" transform="translate(-282.847 -344.713)" fill="#f03e40"/>
        </g>
      </g>
    </g>
    <g id="Group_55-2" data-name="Group 55" transform="translate(363.178 4213)">
      <g transform="matrix(1, 0, 0, 1, -169.9, -33)" filter="url(#Rectangle_WS-4)">
        <rect id="Rectangle_WS-10" data-name="Rectangle WS" width="85.774" height="86.084" rx="22" transform="translate(169.9 33)" fill="url(#linear-gradient)"/>
      </g>
      <g id="Group_56" data-name="Group 56" transform="translate(21.782 20.916)" opacity="0.701">
        <path id="Path_39" data-name="Path 39" d="M570.822,359.817c.178-7.266,2.946-13.156,9.354-16.922a16.573,16.573,0,0,1,13.956-1.619,7.723,7.723,0,0,1,4.71,3.9,1.584,1.584,0,0,0,1.9,1.071,7.319,7.319,0,0,1,8.412,4.72,40.194,40.194,0,0,1,1.426,6.571l.941,7.58s.149,9.665.165,14.5c0,.965-.608.987-1.29.983l-7.741-.048a3.59,3.59,0,0,1,.459-1.982c.95-1.905,2.036-3.819,2.1-6,.1-3.173.16-6.358-.011-9.525-.234-4.329-2.034-7.7-6.394-9.29-1.287-.468-2.2-.547-2.418,1.136a2.458,2.458,0,0,1-.521.988c-2.227,3.1-5.518,4.415-9.037,5.315-1.858.476-3.8.682-5.471,1.731-4.139,2.6-5.672,8.086-3.74,12.955.629,1.582,1.819,2.908,2.056,4.654-2.748.024-5.494.04-8.242.078-.685.009-1.148-.123-1.131-.959.1-4.844.234-14.532.234-14.532a48.912,48.912,0,0,0,.283-5.3Z" transform="translate(-570.306 -340.421)" fill="#f03e40"/>
        <path id="Path_40" data-name="Path 40" d="M580.3,381.784c-.237-1.746-1.427-3.072-2.056-4.654-1.933-4.869-.4-10.357,3.74-12.955,1.674-1.049,3.614-1.255,5.471-1.731,3.519-.9,6.81-2.214,9.037-5.315a2.459,2.459,0,0,0,.521-.988c.224-1.683,1.132-1.6,2.418-1.136,4.36,1.589,6.159,4.961,6.394,9.29.171,3.166.108,6.352.011,9.525-.066,2.185-1.152,4.1-2.1,6a3.591,3.591,0,0,0-.459,1.982c-1.143.244-1.673,1.3-2.532,1.922-6.62,4.786-12.568,4.484-18.977-1.012a3.2,3.2,0,0,0-1.468-.928Z" transform="translate(-570.928 -341.671)" fill="#f03e40" opacity="0.502"/>
      </g>
    </g>
    <g id="card_7" data-name="card 7" transform="translate(246.456 4331.946)">
      <g id="Group_3" data-name="Group 3" transform="translate(8.84 4.734)">
        <g transform="matrix(1, 0, 0, 1, -62.02, -156.68)" filter="url(#Rectangle_WS-5)">
          <rect id="Rectangle_WS-11" data-name="Rectangle WS" width="120" height="120" rx="40" transform="translate(155.51 184.92)" fill="#fff"/>
        </g>
        <g transform="matrix(1, 0, 0, 1, -62.02, -156.68)" filter="url(#Rectangle_WS-6)">
          <path id="Rectangle_WS-12" data-name="Rectangle WS" d="M38.492,0H81.508A38.423,38.423,0,0,1,120,38.354V81.646A38.423,38.423,0,0,1,81.508,120H38.492A38.423,38.423,0,0,1,0,81.646V38.354A38.423,38.423,0,0,1,38.492,0Z" transform="translate(155.51 184.92)" fill="url(#linear-gradient)"/>
        </g>
        <path id="Path_35" data-name="Path 35" d="M23.739,1.132A31.893,31.893,0,0,1,62.426,22.518L47.859,26.51A16.887,16.887,0,0,0,27.631,15.986a17.4,17.4,0,0,0-12,21.253A16.934,16.934,0,0,0,36.415,49.51,17.361,17.361,0,0,0,48.787,30.053l14.568-3.992c3.461,16.883-6.554,33.783-23.048,38.3C23.232,69.042,5.681,58.68,1.106,41.219S6.664,5.811,23.739,1.132ZM28.63,19.8a13.079,13.079,0,0,1,16.052,9.477,13.437,13.437,0,0,1-9.268,16.415,13.079,13.079,0,0,1-16.052-9.477A13.437,13.437,0,0,1,28.63,19.8Zm8.378,4.131A10.329,10.329,0,0,1,40.66,37.869,9.857,9.857,0,0,1,27.032,41.6l9.976-17.67Z" transform="translate(121.406 55.504)" fill="#f03e40" fill-rule="evenodd" opacity="0.89"/>
      </g>
    </g>
    <path id="layer1" d="M21,27.611l3.35,3.35L30.312,25" transform="translate(395.315 4584.289)" fill="none" stroke="#f03e40" stroke-linecap="round" stroke-linejoin="round" stroke-miterlimit="10" stroke-width="3"/>
  </g>
</svg>
