<svg width="383" height="354" viewBox="0 0 383 354" fill="none" xmlns="http://www.w3.org/2000/svg">
<path d="M10.7344 335.458C10.7344 335.458 15.0714 312.899 45.7344 299.891C76.3974 286.883 124.25 278.623 124.25 278.623" stroke="#1652FF" stroke-width="2" stroke-miterlimit="10" stroke-linecap="round" stroke-dasharray="1 10"/>
<path d="M365.147 335.458C365.147 335.458 360.809 312.899 330.147 299.891C299.485 286.883 251.63 278.623 251.63 278.623" stroke="#9E9C9E" stroke-width="2" stroke-miterlimit="10" stroke-linecap="round" stroke-dasharray="1 10"/>
<path d="M323.439 137.697C323.439 137.697 319.101 160.256 288.439 173.265C257.777 186.274 209.922 194.533 209.922 194.533" stroke="#1652FF" stroke-width="2" stroke-miterlimit="10" stroke-linecap="round" stroke-dasharray="1 10"/>
<path d="M53.3584 137.697C53.3584 137.697 57.6954 160.256 88.3584 173.265C119.021 186.274 166.874 194.533 166.874 194.533" stroke="#1652FF" stroke-width="2" stroke-miterlimit="10" stroke-linecap="round" stroke-dasharray="1 10"/>
<path d="M186.306 137.698L189.158 342.737" stroke="#1652FF" stroke-width="2" stroke-miterlimit="10" stroke-linecap="round" stroke-dasharray="1 10"/>
<path d="M44.6133 137.698L53.4403 128.871L62.1013 137.532" stroke="#1652FF" stroke-width="4" stroke-miterlimit="10"/>
<path d="M178.038 137.698L186.865 128.871L195.526 137.532" stroke="#1652FF" stroke-width="4" stroke-miterlimit="10"/>
<path d="M314.694 137.698L323.521 128.871L332.182 137.532" stroke="#1652FF" stroke-width="4" stroke-miterlimit="10"/>
<path d="M373.89 341.694L365.062 350.522L356.401 341.861" stroke="#1652FF" stroke-width="4" stroke-miterlimit="10"/>
<path d="M197.427 341.694L188.6 350.522L179.939 341.861" stroke="#1652FF" stroke-width="4" stroke-miterlimit="10"/>
<path d="M19.488 341.694L10.661 350.522L2 341.861" stroke="#1652FF" stroke-width="4" stroke-miterlimit="10"/>
<path d="M70.8082 23.9512H29.0342C16.8839 23.9512 7.03418 33.8009 7.03418 45.9512V88.0352C7.03418 100.185 16.8839 110.035 29.0342 110.035H70.8082C82.9584 110.035 92.8082 100.185 92.8082 88.0352V45.9512C92.8082 33.8009 82.9584 23.9512 70.8082 23.9512Z" fill="white"/>
<path d="M70.8082 23.9512H29.0342C16.8839 23.9512 7.03418 33.8009 7.03418 45.9512V88.0352C7.03418 100.185 16.8839 110.035 29.0342 110.035H70.8082C82.9584 110.035 92.8082 100.185 92.8082 88.0352V45.9512C92.8082 33.8009 82.9584 23.9512 70.8082 23.9512Z" fill="url(#paint0_linear)"/>
<g opacity="0.701">
<g opacity="0.701">
<path opacity="0.5" d="M67.9722 61.0192C68.7092 61.4412 68.5602 62.1772 68.5722 62.8192C68.6032 65.4552 68.6782 68.0952 68.5952 70.7292C68.6027 74.0889 67.66 77.3822 65.8759 80.229C64.0918 83.0759 61.539 85.3601 58.5122 86.8182C48.0272 92.2982 35.7872 87.3332 31.7822 76.1842C30.8698 73.5824 30.5874 70.8013 30.9582 68.0692C31.4536 68.0826 31.9455 67.9824 32.3962 67.7762C36.3666 66.0316 39.5781 62.9185 41.4452 59.0042C42.4512 57.0732 42.4582 57.0732 44.3712 58.0552C44.6182 58.1812 44.8342 58.3662 45.0712 58.5082C52.3252 62.8032 59.9252 63.9512 67.9722 61.0192Z" fill="#1652FF"/>
<path opacity="0.701" d="M67.972 61.0192C59.925 63.9512 52.325 62.7992 45.072 58.5112C44.832 58.3692 44.617 58.1852 44.372 58.0582C42.459 57.0762 42.452 57.0762 41.446 59.0072C39.5789 62.9215 36.3674 66.0346 32.397 67.7791C31.9463 67.9853 31.4544 68.0856 30.959 68.0721C29.924 58.5401 34.6 50.9341 41.881 47.5721C44.3461 46.4344 47.0286 45.8446 49.7436 45.8433C52.4586 45.842 55.1417 46.4292 57.6079 47.5645C60.0741 48.6999 62.265 50.3563 64.0295 52.4197C65.794 54.4832 67.0903 56.9046 67.829 59.5172C67.925 60.0114 67.9729 60.5137 67.972 61.0172V61.0192Z" fill="#1652FF"/>
</g>
</g>
<g filter="url(#filter0_d)">
<path d="M343.664 23.9512H301.89C289.74 23.9512 279.89 33.8009 279.89 45.9512V88.0352C279.89 100.185 289.74 110.035 301.89 110.035H343.664C355.814 110.035 365.664 100.185 365.664 88.0352V45.9512C365.664 33.8009 355.814 23.9512 343.664 23.9512Z" fill="url(#paint1_linear)"/>
</g>
<g opacity="0.701">
<g opacity="0.701">
<path opacity="0.5" d="M341.779 60.0691C342.516 60.4911 342.367 61.2272 342.379 61.8692C342.41 64.5052 342.485 67.1452 342.402 69.7792C342.41 73.1388 341.467 76.4322 339.683 79.279C337.899 82.1258 335.346 84.4101 332.319 85.8682C321.834 91.3482 309.594 86.3832 305.589 75.2342C304.677 72.6323 304.395 69.8513 304.765 67.1192C305.261 67.1326 305.753 67.0324 306.203 66.8262C310.174 65.0816 313.385 61.9685 315.252 58.0542C316.258 56.1232 316.265 56.1232 318.178 57.1052C318.425 57.2312 318.641 57.4162 318.878 57.5582C326.132 61.8532 333.732 63.0011 341.779 60.0691Z" fill="#1652FF"/>
<path opacity="0.701" d="M341.779 60.0692C333.732 63.0012 326.132 61.8492 318.879 57.5612C318.639 57.4192 318.424 57.2352 318.179 57.1082C316.266 56.1262 316.259 56.1262 315.253 58.0572C313.386 61.9715 310.175 65.0846 306.204 66.8291C305.753 67.0353 305.262 67.1356 304.766 67.1221C303.731 57.5901 308.407 49.9841 315.688 46.6221C318.153 45.4844 320.836 44.8946 323.551 44.8933C326.266 44.892 328.949 45.4792 331.415 46.6145C333.881 47.7499 336.072 49.4063 337.837 51.4697C339.601 53.5332 340.897 55.9546 341.636 58.5671C341.732 59.0614 341.78 59.5637 341.779 60.0671V60.0692Z" fill="#1652FF"/>
</g>
</g>
<g filter="url(#filter1_d)">
<path d="M207.711 23H165.937C153.787 23 143.937 32.8497 143.937 45V87.084C143.937 99.2343 153.787 109.084 165.937 109.084H207.711C219.861 109.084 229.711 99.2343 229.711 87.084V45C229.711 32.8497 219.861 23 207.711 23Z" fill="url(#paint2_linear)"/>
</g>
<g opacity="0.701">
<path opacity="0.701" d="M166.235 63.312C166.413 56.046 169.181 50.156 175.589 46.39C177.655 45.1144 179.976 44.3082 182.387 44.0284C184.799 43.7487 187.242 44.0022 189.545 44.771C190.554 45.0662 191.493 45.5643 192.303 46.2349C193.113 46.9056 193.777 47.7345 194.255 48.671C194.374 49.0589 194.638 49.3863 194.992 49.5856C195.345 49.7849 195.762 49.8409 196.155 49.742C197.891 49.3754 199.701 49.652 201.249 50.5202C202.796 51.3885 203.975 52.7893 204.567 54.462C205.225 56.6087 205.702 58.8067 205.993 61.033L206.934 68.613C206.934 68.613 207.083 78.278 207.099 83.113C207.099 84.078 206.491 84.1 205.809 84.096L198.068 84.048C198.027 83.3569 198.186 82.6686 198.527 82.066C199.477 80.161 200.563 78.247 200.627 76.066C200.727 72.893 200.787 69.708 200.616 66.541C200.382 62.212 198.582 58.841 194.222 57.251C192.935 56.783 192.022 56.704 191.804 58.387C191.709 58.7519 191.53 59.09 191.283 59.375C189.056 62.475 185.765 63.79 182.246 64.69C180.388 65.166 178.446 65.372 176.775 66.421C172.636 69.021 171.103 74.507 173.035 79.376C173.664 80.958 174.854 82.284 175.091 84.03C172.343 84.054 169.597 84.07 166.849 84.108C166.164 84.117 165.701 83.985 165.718 83.149C165.818 78.305 165.952 68.617 165.952 68.617C166.142 66.8568 166.237 65.0875 166.235 63.317V63.312Z" fill="#1652FF"/>
<path opacity="0.502" d="M175.091 84.029C174.854 82.283 173.664 80.957 173.035 79.375C171.102 74.506 172.635 69.018 176.775 66.42C178.449 65.371 180.389 65.165 182.246 64.689C185.765 63.789 189.056 62.475 191.283 59.374C191.53 59.089 191.709 58.7509 191.804 58.386C192.028 56.703 192.936 56.786 194.222 57.25C198.582 58.839 200.381 62.211 200.616 66.54C200.787 69.706 200.724 72.892 200.627 76.065C200.561 78.25 199.475 80.165 198.527 82.065C198.186 82.6676 198.027 83.3559 198.068 84.047C196.925 84.291 196.395 85.347 195.536 85.969C188.916 90.755 182.968 90.453 176.559 84.957C176.165 84.5183 175.657 84.1971 175.091 84.029V84.029Z" fill="#1652FF"/>
</g>
<defs>
<filter id="filter0_d" x="256.89" y="0.951172" width="125.774" height="126.084" filterUnits="userSpaceOnUse" color-interpolation-filters="sRGB">
<feFlood flood-opacity="0" result="BackgroundImageFix"/>
<feColorMatrix in="SourceAlpha" type="matrix" values="0 0 0 0 0 0 0 0 0 0 0 0 0 0 0 0 0 0 127 0"/>
<feOffset dx="-3" dy="-3"/>
<feGaussianBlur stdDeviation="10"/>
<feColorMatrix type="matrix" values="0 0 0 0 1 0 0 0 0 1 0 0 0 0 1 0 0 0 1 0"/>
<feBlend mode="normal" in2="BackgroundImageFix" result="effect1_dropShadow"/>
<feBlend mode="normal" in="SourceGraphic" in2="effect1_dropShadow" result="shape"/>
</filter>
<filter id="filter1_d" x="120.937" y="0" width="125.774" height="126.084" filterUnits="userSpaceOnUse" color-interpolation-filters="sRGB">
<feFlood flood-opacity="0" result="BackgroundImageFix"/>
<feColorMatrix in="SourceAlpha" type="matrix" values="0 0 0 0 0 0 0 0 0 0 0 0 0 0 0 0 0 0 127 0"/>
<feOffset dx="-3" dy="-3"/>
<feGaussianBlur stdDeviation="10"/>
<feColorMatrix type="matrix" values="0 0 0 0 1 0 0 0 0 1 0 0 0 0 1 0 0 0 1 0"/>
<feBlend mode="normal" in2="BackgroundImageFix" result="effect1_dropShadow"/>
<feBlend mode="normal" in="SourceGraphic" in2="effect1_dropShadow" result="shape"/>
</filter>
<linearGradient id="paint0_linear" x1="92.8082" y1="110.035" x2="-21.1675" y2="-3.8732" gradientUnits="userSpaceOnUse">
<stop stop-color="#E0E8FF"/>
<stop offset="1" stop-color="#E7F1FF"/>
</linearGradient>
<linearGradient id="paint1_linear" x1="365.664" y1="110.035" x2="251.688" y2="-3.8732" gradientUnits="userSpaceOnUse">
<stop stop-color="#E0E8FF"/>
<stop offset="1" stop-color="#E7F1FF"/>
</linearGradient>
<linearGradient id="paint2_linear" x1="229.711" y1="109.084" x2="115.735" y2="-4.82437" gradientUnits="userSpaceOnUse">
<stop stop-color="#E0E8FF"/>
<stop offset="1" stop-color="#E7F1FF"/>
</linearGradient>
</defs>
</svg>
